<svg width="83" height="18" viewBox="0 0 83 18" fill="none" xmlns="http://www.w3.org/2000/svg">
<path d="M33.7273 7.125C33.6477 6.84848 33.536 6.60417 33.392 6.39205C33.2481 6.17614 33.072 5.99432 32.8636 5.84659C32.6591 5.69508 32.4242 5.57955 32.1591 5.5C31.8977 5.42045 31.608 5.38068 31.2898 5.38068C30.6951 5.38068 30.1723 5.52841 29.7216 5.82386C29.2746 6.11932 28.9261 6.54924 28.6761 7.11364C28.4261 7.67424 28.3011 8.35985 28.3011 9.17045C28.3011 9.98106 28.4242 10.6705 28.6705 11.2386C28.9167 11.8068 29.2652 12.2405 29.7159 12.5398C30.1667 12.8352 30.6989 12.983 31.3125 12.983C31.8693 12.983 32.3447 12.8845 32.7386 12.6875C33.1364 12.4867 33.4394 12.2045 33.6477 11.8409C33.8598 11.4773 33.9659 11.0473 33.9659 10.5511L34.4659 10.625H31.4659V8.77273H36.3352V10.2386C36.3352 11.2614 36.1193 12.1402 35.6875 12.875C35.2557 13.6061 34.661 14.1705 33.9034 14.5682C33.1458 14.9621 32.2784 15.1591 31.3011 15.1591C30.2102 15.1591 29.2519 14.9186 28.4261 14.4375C27.6004 13.9527 26.9564 13.2652 26.4943 12.375C26.036 11.4811 25.8068 10.4205 25.8068 9.19318C25.8068 8.25 25.9432 7.40909 26.2159 6.67045C26.4924 5.92803 26.8788 5.29924 27.375 4.78409C27.8712 4.26894 28.4489 3.87689 29.108 3.60795C29.767 3.33901 30.4811 3.20455 31.25 3.20455C31.9091 3.20455 32.5227 3.30114 33.0909 3.49432C33.6591 3.68371 34.1629 3.95265 34.6023 4.30114C35.0455 4.64962 35.4072 5.06439 35.6875 5.54545C35.9678 6.02273 36.1477 6.54924 36.2273 7.125H33.7273ZM38.1378 15V6.27273H40.4844V7.79545H40.5753C40.7344 7.25379 41.0014 6.8447 41.3764 6.56818C41.7514 6.28788 42.1832 6.14773 42.6719 6.14773C42.7931 6.14773 42.9238 6.1553 43.0639 6.17045C43.2041 6.18561 43.3272 6.20644 43.4332 6.23295V8.38068C43.3196 8.34659 43.1624 8.31629 42.9616 8.28977C42.7609 8.26326 42.5772 8.25 42.4105 8.25C42.0545 8.25 41.7363 8.32765 41.456 8.48295C41.1795 8.63447 40.9598 8.84659 40.7969 9.11932C40.6378 9.39205 40.5582 9.70644 40.5582 10.0625V15H38.1378ZM48.2557 15.1705C47.358 15.1705 46.5852 14.9886 45.9375 14.625C45.2936 14.2576 44.7973 13.7386 44.4489 13.0682C44.1004 12.3939 43.9261 11.5966 43.9261 10.6761C43.9261 9.77841 44.1004 8.99053 44.4489 8.3125C44.7973 7.63447 45.2879 7.10606 45.9205 6.72727C46.5568 6.34848 47.303 6.15909 48.1591 6.15909C48.7348 6.15909 49.2708 6.25189 49.767 6.4375C50.267 6.61932 50.7027 6.89394 51.0739 7.26136C51.4489 7.62879 51.7405 8.09091 51.9489 8.64773C52.1572 9.20076 52.2614 9.84848 52.2614 10.5909V11.2557H44.892V9.75568H49.983C49.983 9.4072 49.9072 9.09848 49.7557 8.82955C49.6042 8.56061 49.3939 8.35038 49.125 8.19886C48.8598 8.04356 48.5511 7.96591 48.1989 7.96591C47.8314 7.96591 47.5057 8.05114 47.2216 8.22159C46.9413 8.38826 46.7216 8.61364 46.5625 8.89773C46.4034 9.17803 46.322 9.49053 46.3182 9.83523V11.2614C46.3182 11.6932 46.3977 12.0663 46.5568 12.3807C46.7197 12.6951 46.9489 12.9375 47.2443 13.108C47.5398 13.2784 47.8902 13.3636 48.2955 13.3636C48.5644 13.3636 48.8106 13.3258 49.0341 13.25C49.2576 13.1742 49.4489 13.0606 49.608 12.9091C49.767 12.7576 49.8883 12.572 49.9716 12.3523L52.2102 12.5C52.0966 13.0379 51.8636 13.5076 51.5114 13.9091C51.1629 14.3068 50.7121 14.6174 50.1591 14.8409C49.6098 15.0606 48.9754 15.1705 48.2557 15.1705ZM58.483 6.27273V8.09091H53.2273V6.27273H58.483ZM54.4205 4.18182H56.8409V12.3182C56.8409 12.5417 56.875 12.7159 56.9432 12.8409C57.0114 12.9621 57.1061 13.0473 57.2273 13.0966C57.3523 13.1458 57.4962 13.1705 57.6591 13.1705C57.7727 13.1705 57.8864 13.161 58 13.142C58.1136 13.1193 58.2008 13.1023 58.2614 13.0909L58.642 14.892C58.5208 14.9299 58.3504 14.9735 58.1307 15.0227C57.911 15.0758 57.6439 15.108 57.3295 15.1193C56.7462 15.142 56.2348 15.0644 55.7955 14.8864C55.3598 14.7083 55.0208 14.4318 54.7784 14.0568C54.536 13.6818 54.4167 13.2083 54.4205 12.6364V4.18182ZM62.5483 15.1648C61.9915 15.1648 61.4953 15.0682 61.0597 14.875C60.6241 14.678 60.2794 14.3883 60.0256 14.0057C59.7756 13.6193 59.6506 13.1383 59.6506 12.5625C59.6506 12.0777 59.7396 11.6705 59.9176 11.3409C60.0956 11.0114 60.3381 10.7462 60.6449 10.5455C60.9517 10.3447 61.3002 10.1932 61.6903 10.0909C62.0843 9.98864 62.4972 9.91667 62.929 9.875C63.4366 9.82197 63.8456 9.77273 64.1562 9.72727C64.4669 9.67803 64.6922 9.60606 64.8324 9.51136C64.9725 9.41667 65.0426 9.27652 65.0426 9.09091V9.05682C65.0426 8.69697 64.929 8.41856 64.7017 8.22159C64.4782 8.02462 64.16 7.92614 63.7472 7.92614C63.3116 7.92614 62.965 8.02273 62.7074 8.21591C62.4498 8.4053 62.2794 8.64394 62.196 8.93182L59.9574 8.75C60.071 8.2197 60.2945 7.76136 60.6278 7.375C60.9612 6.98485 61.3911 6.68561 61.9176 6.47727C62.4479 6.26515 63.0616 6.15909 63.7585 6.15909C64.2434 6.15909 64.7074 6.21591 65.1506 6.32955C65.5975 6.44318 65.9934 6.61932 66.3381 6.85795C66.6866 7.09659 66.9612 7.40341 67.1619 7.77841C67.3627 8.14962 67.4631 8.5947 67.4631 9.11364V15H65.1676V13.7898H65.0994C64.9593 14.0625 64.7718 14.303 64.5369 14.5114C64.3021 14.7159 64.0199 14.8769 63.6903 14.9943C63.3608 15.108 62.9801 15.1648 62.5483 15.1648ZM63.2415 13.4943C63.5975 13.4943 63.9119 13.4242 64.1847 13.2841C64.4574 13.1402 64.6714 12.947 64.8267 12.7045C64.982 12.4621 65.0597 12.1875 65.0597 11.8807V10.9545C64.9839 11.0038 64.8797 11.0492 64.7472 11.0909C64.6184 11.1288 64.4725 11.1648 64.3097 11.1989C64.1468 11.2292 63.9839 11.2576 63.821 11.2841C63.6581 11.3068 63.5104 11.3277 63.3778 11.3466C63.0938 11.3883 62.8456 11.4545 62.6335 11.5455C62.4214 11.6364 62.2566 11.7595 62.1392 11.9148C62.0218 12.0663 61.9631 12.2557 61.9631 12.483C61.9631 12.8125 62.0824 13.0644 62.321 13.2386C62.5634 13.4091 62.8703 13.4943 63.2415 13.4943ZM71.7614 3.36364V15H69.3409V3.36364H71.7614ZM75.8935 12.4886L75.8991 9.58523H76.2514L79.0469 6.27273H81.8253L78.0696 10.6591H77.4957L75.8935 12.4886ZM73.7003 15V3.36364H76.1207V15H73.7003ZM79.1548 15L76.5866 11.1989L78.2003 9.48864L81.9901 15H79.1548Z" fill="#1E1E1E"/>
<rect y="1.5" width="4.28571" height="15" fill="#1E1E1E"/>
<path d="M5.71429 0.75H8.57144H11.4286V17.25H5.71429V0.75Z" fill="#1E1E1E"/>
<path d="M12.8571 0H20V18H12.8571V0Z" fill="#1E1E1E"/>
</svg>
